<svg xmlns="http://www.w3.org/2000/svg" xmlns:xlink="http://www.w3.org/1999/xlink" width="1920" zoomAndPan="magnify" viewBox="0 0 1440 1439.999935" height="1920" preserveAspectRatio="xMidYMid meet" version="1.0"><defs><clipPath id="bc577abaee"><path d="M 0.527344 0.527344 L 1395.472656 0.527344 L 1395.472656 1395.472656 L 0.527344 1395.472656 Z M 0.527344 0.527344 " clip-rule="nonzero"/></clipPath><clipPath id="4fa8d93fe4"><path d="M 698 0.527344 C 312.796875 0.527344 0.527344 312.796875 0.527344 698 C 0.527344 1083.203125 312.796875 1395.472656 698 1395.472656 C 1083.203125 1395.472656 1395.472656 1083.203125 1395.472656 698 C 1395.472656 312.796875 1083.203125 0.527344 698 0.527344 Z M 698 0.527344 " clip-rule="nonzero"/></clipPath><clipPath id="7d386b6f6c"><path d="M 0.527344 0.527344 L 1395.472656 0.527344 L 1395.472656 1395.472656 L 0.527344 1395.472656 Z M 0.527344 0.527344 " clip-rule="nonzero"/></clipPath><clipPath id="d6e2cd776f"><path d="M 698 0.527344 C 312.796875 0.527344 0.527344 312.796875 0.527344 698 C 0.527344 1083.203125 312.796875 1395.472656 698 1395.472656 C 1083.203125 1395.472656 1395.472656 1083.203125 1395.472656 698 C 1395.472656 312.796875 1083.203125 0.527344 698 0.527344 Z M 698 0.527344 " clip-rule="nonzero"/></clipPath><clipPath id="f8bd1df793"><rect x="0" width="1396" y="0" height="1396"/></clipPath><clipPath id="cc645a97a1"><path d="M 974.132812 698 L 1274.386719 698 L 1274.386719 998.253906 L 974.132812 998.253906 Z M 974.132812 698 " clip-rule="nonzero"/></clipPath><clipPath id="3cce1f4549"><path d="M 1124.257812 698 C 1041.347656 698 974.132812 765.214844 974.132812 848.128906 C 974.132812 931.039062 1041.347656 998.253906 1124.257812 998.253906 C 1207.171875 998.253906 1274.386719 931.039062 1274.386719 848.128906 C 1274.386719 765.214844 1207.171875 698 1124.257812 698 Z M 1124.257812 698 " clip-rule="nonzero"/></clipPath><clipPath id="f078cbdfec"><path d="M 0.132812 0 L 300.386719 0 L 300.386719 300.253906 L 0.132812 300.253906 Z M 0.132812 0 " clip-rule="nonzero"/></clipPath><clipPath id="87e6b717e6"><path d="M 150.257812 0 C 67.347656 0 0.132812 67.214844 0.132812 150.128906 C 0.132812 233.039062 67.347656 300.253906 150.257812 300.253906 C 233.171875 300.253906 300.386719 233.039062 300.386719 150.128906 C 300.386719 67.214844 233.171875 0 150.257812 0 Z M 150.257812 0 " clip-rule="nonzero"/></clipPath><clipPath id="7e8ab00a5b"><rect x="0" width="301" y="0" height="301"/></clipPath><clipPath id="dfda567286"><path d="M 782.757812 998.253906 L 1016.511719 998.253906 L 1016.511719 1232.007812 L 782.757812 1232.007812 Z M 782.757812 998.253906 " clip-rule="nonzero"/></clipPath><clipPath id="baf7215785"><path d="M 899.636719 998.253906 C 835.085938 998.253906 782.757812 1050.582031 782.757812 1115.132812 C 782.757812 1179.679688 835.085938 1232.007812 899.636719 1232.007812 C 964.183594 1232.007812 1016.511719 1179.679688 1016.511719 1115.132812 C 1016.511719 1050.582031 964.183594 998.253906 899.636719 998.253906 Z M 899.636719 998.253906 " clip-rule="nonzero"/></clipPath><clipPath id="b17886507f"><path d="M 0.757812 0.253906 L 234.511719 0.253906 L 234.511719 234.007812 L 0.757812 234.007812 Z M 0.757812 0.253906 " clip-rule="nonzero"/></clipPath><clipPath id="c15bc22f32"><path d="M 117.636719 0.253906 C 53.085938 0.253906 0.757812 52.582031 0.757812 117.132812 C 0.757812 181.679688 53.085938 234.007812 117.636719 234.007812 C 182.183594 234.007812 234.511719 181.679688 234.511719 117.132812 C 234.511719 52.582031 182.183594 0.253906 117.636719 0.253906 Z M 117.636719 0.253906 " clip-rule="nonzero"/></clipPath><clipPath id="fe7e1d0a6c"><rect x="0" width="235" y="0" height="235"/></clipPath><clipPath id="d804ac3317"><rect x="0" width="1396" y="0" height="1396"/></clipPath></defs><g transform="matrix(1, 0, 0, 1, 22, 22)"><g clip-path="url(#d804ac3317)"><g clip-path="url(#bc577abaee)"><g clip-path="url(#4fa8d93fe4)"><g transform="matrix(1, 0, 0, 1, 0, -0.000000000000099476)"><g clip-path="url(#f8bd1df793)"><g clip-path="url(#7d386b6f6c)"><g clip-path="url(#d6e2cd776f)"><path fill="#d9d9d9" d="M 0.527344 0.527344 L 1395.472656 0.527344 L 1395.472656 1395.472656 L 0.527344 1395.472656 Z M 0.527344 0.527344 " fill-opacity="1" fill-rule="nonzero"/></g></g></g></g></g></g><g clip-path="url(#cc645a97a1)"><g clip-path="url(#3cce1f4549)"><g transform="matrix(1, 0, 0, 1, 974, 698)"><g clip-path="url(#7e8ab00a5b)"><g clip-path="url(#f078cbdfec)"><g clip-path="url(#87e6b717e6)"><path fill="#641a35" d="M 0.132812 0 L 300.386719 0 L 300.386719 300.253906 L 0.132812 300.253906 Z M 0.132812 0 " fill-opacity="1" fill-rule="nonzero"/></g></g></g></g></g></g><g clip-path="url(#dfda567286)"><g clip-path="url(#baf7215785)"><g transform="matrix(1, 0, 0, 1, 782, 998)"><g clip-path="url(#fe7e1d0a6c)"><g clip-path="url(#b17886507f)"><g clip-path="url(#c15bc22f32)"><path fill="#135cbc" d="M 0.757812 0.253906 L 234.511719 0.253906 L 234.511719 234.007812 L 0.757812 234.007812 Z M 0.757812 0.253906 " fill-opacity="1" fill-rule="nonzero"/></g></g></g></g></g></g></g></g></svg>